<svg width="85" height="21" fill="none" xmlns="http://www.w3.org/2000/svg"><g clip-path="url(#clip0_2_254)"><path d="M28.492 9.456l1.585-3.661-1.384-3.248-.026-.063h.656l.012.028 1.137 2.716 1.136-2.716.012-.028h.657l-.027.063-1.383 3.247 1.607 3.663 2.984-7 .012-.028h.724l-.028.064-3.382 7.753-.012.028h-.584l-.012-.028-1.693-3.888-1.704 3.888-.012.028h-.584l-.012-.028L24.8 2.493l-.028-.064h.713l.012.028 2.995 7zM12.247 1.987c-.175.14-.26.145-.206.238.056.096.073.137-.065.143-.139.007-.236-.013-.191.055.045.068.121.15-.118.187-.239.037-.887.269-1.279.3-.392.03-.548.19-.6.316-.052.126-.54.337-.669.146-.128-.19-.284-.483-.208-.643.37-.776-.461-.192-.682-.502 1.3-.372 2.852-.575 4.019-.24zm2.308.688c3.008 1.221 4.597 4.219 5.037 5.914-.529.41-1.547 1.3-1.658.703-.11-.598-.304.025-.498-.465-.194-.49-.998-.925-.416-.19.583.735.165.41.442.791.278.381.527.6.971.463.444-.136.36.272-.028.68-.388.409-1.164 1.143-1.137 2.069.028.926.305.871-.305 1.361s-.138.626-.554 1.007c-.416.381-.305.817-1.054 1.143-.749.327-.5.327-.721-.38-.222-.709-.776-1.062-.72-1.933.055-.871.415-1.525-.029-1.987-.443-.463.028-1.334-.637-1.28-.666.055-1.498.626-2.136-.435-.637-1.062-.998-1.933-.332-2.34.665-.41.637-1.035.831-1.198.195-.164.694.244 1.803-.055 1.11-.3.388.136 1.11.463.72.326.942.054 1.108-.055.167-.109 1.498-.3.638-.626-.98-.372-1.271-.158-1.392-.75-.111-.545-1.477-.327-1.01-.13.467.197.877.445.683.486-.194.04-.366.28-.514.228-.147-.052.389-.16.098-.35-.291-.191-.485-.15-.582-.341a2.558 2.558 0 01-.111-.231s-.333-.191-.75.408c-.415.599-.997.816-1.164.19-.166-.626 1.498-.571.804-.98-.693-.408.666-.571.999-.598.332-.027 1.192-.926.61-.79-.583.136-.832.218-1.331-.109-.492-.321 1.435-.194 1.945-.683zM1.88 8.953c.466-2.181 3.143-5.719 5.424-6.285.582 0 .363.82.668 1.337.305.517-.083.817-1.359 1.007-1.275.19-1.081 1.034-1.691 1.307-.61.272-.943 1.007-1.137.68-.194-.327-.804-.272-1.193.79-.388 1.06.059.885.374.799.315-.086.236.357.541.846.305.49.999.232 1.664.042.666-.19 1.636.3 1.83.816.195.518 0 .926 1.331 1.389 1.331.462.915.626.721 1.197-.194.572-.277.898-.665 1.443-.388.544.194.87-.388 1.143-.583.272-1.248.762-1.22 1.28.027.516.471 1.387-.333.789-.804-.6-1.082-1.66-1.193-3.185-.11-1.524-.527-.735-1.109-1.388-.582-.653-.54-1.51-.305-1.946.236-.436.402-.94-.083-.994-.485-.054-.693-.177-.887-.667-.194-.49-.264-.163-.694-.231-.152-.024-.246-.074-.296-.17zm22.948 8.86H60.27v.003h.022v-.01a.933.933 0 00.623-.274.901.901 0 00.282-.67.888.888 0 00-.28-.662c-.1-.1-.305-.245-.612-.438-.363-.193-.614-.357-.753-.493a1.044 1.044 0 01-.328-.773c0-.305.109-.564.328-.78.19-.19.418-.297.678-.32 0-.009 1.29-.005 1.412-.005v.407c-.445 0-.896-.002-1.275-.005a.76.76 0 00-.517.22.647.647 0 00-.204.483c0 .186.068.345.204.479.08.077.247.195.503.354.405.218.694.41.864.577a1.3 1.3 0 01.403.956c0 .378-.134.7-.403.966a1.339 1.339 0 01-.978.398 1.57 1.57 0 01-.132-.006H24.828v-.407zM10.774 0c2.953 0 5.628 1.175 7.564 3.076 1.935 1.9 3.133 4.525 3.133 7.424 0 2.9-1.198 5.525-3.133 7.425A10.766 10.766 0 0110.773 21a10.765 10.765 0 01-7.564-3.075C1.274 16.025.076 13.399.076 10.5c0-2.9 1.198-5.524 3.133-7.424A10.765 10.765 0 0110.773 0zm7.057 3.572a10.044 10.044 0 00-7.057-2.87 10.044 10.044 0 00-7.059 2.87A9.677 9.677 0 00.792 10.5a9.677 9.677 0 002.923 6.928 10.044 10.044 0 007.059 2.87c2.756 0 5.251-1.097 7.057-2.87a9.678 9.678 0 002.924-6.928 9.677 9.677 0 00-2.924-6.928zm45.736 9.968v-1.947h.426v1.947h.949v.42h-.95v4.154h-.425V13.96h-.95v-.42h.95zm4.436 4.64c-.581 0-1.046-.169-1.39-.508-.344-.338-.523-.766-.532-1.28V13.54h.427v2.813c0 .388.144.719.433.992.285.276.636.414 1.057.414.392 0 .732-.137 1.017-.412.287-.275.431-.606.431-.994V13.54h.426v2.85c-.01.515-.186.943-.531 1.281-.345.339-.79.508-1.338.508zm8.324-.066h-.428v-.931a3.077 3.077 0 01-.27.311 2.533 2.533 0 01-1.845.75c-.72 0-1.333-.249-1.842-.75a2.436 2.436 0 01-.764-1.806c0-.709.254-1.313.764-1.812.509-.5 1.123-.75 1.842-.75.72 0 1.336.25 1.845.75.098.099.187.203.27.312V10.66h.428v7.453zm-.428-2.012v-.829c-.08-.41-.277-.77-.593-1.08a2.093 2.093 0 00-1.522-.62c-.596 0-1.103.206-1.524.62a2.01 2.01 0 00-.63 1.495c0 .584.209 1.081.63 1.493.42.41.928.617 1.524.617.594 0 1.101-.207 1.522-.62.316-.31.514-.67.593-1.076zm2.373-2.562v4.574h-.428V13.54h.428zm-.214-1.62c.117 0 .217.04.301.121.085.08.127.178.127.293a.4.4 0 01-.127.299.42.42 0 01-.3.12.419.419 0 01-.302-.12.4.4 0 01-.127-.3.39.39 0 01.127-.292.418.418 0 01.301-.12zm4.052 1.206c.721 0 1.337.25 1.844.75.508.5.761 1.103.761 1.812a2.44 2.44 0 01-.761 1.806 2.527 2.527 0 01-1.843.75 2.532 2.532 0 01-1.842-.75 2.44 2.44 0 01-.763-1.806c0-.709.254-1.313.763-1.812a2.54 2.54 0 011.841-.75zm0 .448a2.09 2.09 0 00-1.522.618 2.02 2.02 0 00-.632 1.496c0 .584.21 1.081.632 1.493.42.41.928.617 1.523.617a2.11 2.11 0 001.524-.617c.42-.412.63-.91.63-1.493 0-.585-.21-1.082-.63-1.496a2.096 2.096 0 00-1.525-.618zm-42.47-3.236c.28-.002.546-.037.802-.106a2.95 2.95 0 00.71-.293 2.5 2.5 0 00.568-.45c.161-.173.287-.362.378-.571l-.656-.175a1.521 1.521 0 01-.41.539c-.182.153-.39.273-.627.357a2.218 2.218 0 01-.744.13 2.05 2.05 0 01-1.451-.6 2.245 2.245 0 01-.47-.672 2.454 2.454 0 01-.215-.846h4.951a1.782 1.782 0 00.022-.295 3.064 3.064 0 00-.215-1.114 2.909 2.909 0 00-.59-.93 2.75 2.75 0 00-.904-.635 2.9 2.9 0 00-1.16-.236 2.92 2.92 0 00-1.163.232 2.849 2.849 0 00-1.525 1.564 3.101 3.101 0 000 2.277c.145.356.345.671.607.944.261.273.567.488.923.643.354.155.744.233 1.168.236zm-2.137-3.255a2.32 2.32 0 01.206-.83 2.08 2.08 0 011.92-1.234c.285.002.552.051.798.151.249.1.47.242.662.426.193.184.349.402.468.654.118.25.192.53.218.833h-4.272zm40.599 3.255c.28-.002.547-.037.803-.106.256-.07.493-.167.71-.293.217-.127.406-.277.567-.45.162-.173.288-.362.379-.571l-.657-.175a1.52 1.52 0 01-.41.539 1.99 1.99 0 01-.626.357 2.218 2.218 0 01-.744.13 2.05 2.05 0 01-1.452-.6 2.247 2.247 0 01-.469-.672 2.456 2.456 0 01-.215-.846h4.95a1.75 1.75 0 00.022-.295 3.066 3.066 0 00-.214-1.114 2.909 2.909 0 00-.59-.93 2.75 2.75 0 00-.904-.635 2.9 2.9 0 00-1.161-.236 2.92 2.92 0 00-1.163.232 2.849 2.849 0 00-1.524 1.564 3.107 3.107 0 000 2.277c.145.356.345.671.606.944.262.273.568.488.924.643.354.155.743.233 1.168.236zm-2.136-3.255a2.31 2.31 0 01.206-.83 2.083 2.083 0 011.92-1.234c.284.002.551.051.798.151.248.1.47.242.662.426.193.184.349.402.467.654.119.25.193.53.219.833h-4.272zm-29.12 3.26a2.575 2.575 0 01-1.358-.125 2.838 2.838 0 01-.774-.448 2.706 2.706 0 01-.489-.524v1.028h-.594V2.21h.649v3.428a3.653 3.653 0 01.533-.585c.116-.1.237-.191.363-.27a2.503 2.503 0 01.839-.333 2.54 2.54 0 01.477-.045c.169 0 .33.016.484.044.154.029.302.071.442.127a2.541 2.541 0 011.053.777 3.213 3.213 0 01.597 1.175 3.254 3.254 0 01.082 1.353 3.004 3.004 0 01-.27.87 2.942 2.942 0 01-.825 1.04 2.785 2.785 0 01-.773.433 2.49 2.49 0 01-.437.117zm-.821-.561c.083.012.165.018.245.018.133 0 .26-.012.384-.034a2.177 2.177 0 001.238-.709 2.54 2.54 0 00.528-.937 2.416 2.416 0 00.107-.71 2.79 2.79 0 00-.159-.909 2.415 2.415 0 00-.444-.774 2.126 2.126 0 00-.681-.538 1.842 1.842 0 00-.416-.149 2.08 2.08 0 00-.81-.02c-.112.02-.222.05-.328.089a2.18 2.18 0 00-.583.324 2.751 2.751 0 00-.477.473 3.211 3.211 0 00-.349.554v1.866a1.134 1.134 0 00.163.46 1.855 1.855 0 00.343.406 2.33 2.33 0 00.464.323 2.935 2.935 0 00.517.21v.001c.088.025.173.043.258.056zm12.954-3.559a5.6 5.6 0 01.043.74v3.311h-.649V7.06c0-.353-.028-.662-.084-.924a1.86 1.86 0 00-.252-.642 1.064 1.064 0 00-.413-.373A1.28 1.28 0 0057.04 5a1.769 1.769 0 00-.871.222c-.133.073-.257.16-.37.261a2.27 2.27 0 00-.316.348c-.097.13-.181.27-.254.42a2.984 2.984 0 00-.179.479v3.545h-.649V7.06a4.55 4.55 0 00-.082-.933 1.853 1.853 0 00-.248-.64 1.037 1.037 0 00-.41-.37A1.278 1.278 0 0053.08 5a1.87 1.87 0 00-.862.217 2.084 2.084 0 00-.373.257 2.447 2.447 0 00-.58.766 2.973 2.973 0 00-.186.48v3.553h-.649V4.504h.604V5.73a2.94 2.94 0 01.511-.642 2.578 2.578 0 01.77-.505 2.374 2.374 0 01.897-.177v.001c.167.001.322.018.466.051a1.633 1.633 0 011.012.703c.076.117.138.245.187.382.035.1.063.203.084.313.123-.21.254-.398.395-.562.167-.195.347-.358.539-.49a2.25 2.25 0 011.311-.397c.216.001.41.027.585.078a1.424 1.424 0 01.814.604c.098.147.177.315.239.505.06.19.105.4.135.63zm3.553 4.128a3.53 3.53 0 01-.475.032 2.359 2.359 0 01-.399-.036 2.032 2.032 0 01-.706-.266 1.836 1.836 0 01-.704-.791 1.649 1.649 0 01-.112-.343 1.873 1.873 0 01-.039-.373 1.398 1.398 0 01.184-.697v-.001c.061-.105.135-.203.22-.294.085-.09.183-.174.293-.25.11-.076.23-.144.36-.203.13-.06.27-.11.418-.152.149-.04.306-.072.471-.093.164-.02.336-.03.515-.032a5.339 5.339 0 01.955.084 4.784 4.784 0 01.801.202v-.492c0-.175-.019-.339-.054-.491a1.686 1.686 0 00-.156-.42 1.429 1.429 0 00-.582-.59v.001a1.62 1.62 0 00-.413-.158 2.141 2.141 0 00-.484-.054 2.3 2.3 0 00-.437.043 2.78 2.78 0 00-.456.129 3.75 3.75 0 00-.467.209 4.667 4.667 0 00-.472.287l-.04.029-.026-.043-.223-.371-.022-.037.036-.024c.189-.124.374-.233.556-.326.183-.093.363-.172.541-.234a3.4 3.4 0 01.526-.142 3.043 3.043 0 011.178.023c.204.046.393.115.564.207a1.93 1.93 0 01.798.787c.093.171.163.358.21.562.047.202.07.421.072.657v2.765a.38.38 0 00.013.108.17.17 0 00.035.068c.014.017.032.03.054.038a.236.236 0 00.085.013h.046v.575l-.04.005a1.29 1.29 0 01-.114.01c-.035.002-.065.002-.092.002a.612.612 0 01-.279-.067.598.598 0 01-.214-.182.462.462 0 01-.087-.276v-.344a2.688 2.688 0 01-.956.698 3.041 3.041 0 01-.426.155c-.148.041-.3.072-.456.094zm-.752-.542c.122.03.252.045.388.046a3.184 3.184 0 00.81-.105 2.66 2.66 0 00.362-.127c.113-.05.22-.106.318-.17.1-.063.188-.132.267-.207.08-.075.149-.157.207-.244L64.133 9l.002-.002a.889.889 0 00.078-.105.664.664 0 00.09-.209.428.428 0 00.01-.094v-.973a5.16 5.16 0 00-.808-.214 5.254 5.254 0 00-.88-.078 3.623 3.623 0 00-.538.04 2.6 2.6 0 00-.462.117 1.818 1.818 0 00-.376.185 1.303 1.303 0 00-.28.244.98.98 0 00-.234.636c0 .123.017.24.05.352a1.2 1.2 0 00.141.315 1.338 1.338 0 00.51.465c.108.057.222.1.344.13zm7.326.52a3.956 3.956 0 01-1.523-.045 3.582 3.582 0 01-.808-.296 2.974 2.974 0 01-.69-.492l-.028-.027.024-.032.278-.371.03-.04.038.033c.153.134.308.251.467.35a2.765 2.765 0 001.011.397 3.147 3.147 0 001.025.015c.144-.023.277-.058.4-.103.122-.045.23-.1.325-.166a1.09 1.09 0 00.24-.223h.001a.884.884 0 00.15-.276 1.06 1.06 0 00.053-.332.895.895 0 00-.028-.232.625.625 0 00-.083-.187.752.752 0 00-.138-.157 1.054 1.054 0 00-.196-.134c-.075-.04-.16-.08-.255-.116a3.755 3.755 0 00-.313-.106 17.258 17.258 0 00-.798-.203 14.251 14.251 0 01-.46-.112 9.317 9.317 0 01-.396-.113 3.197 3.197 0 01-.335-.122 1.924 1.924 0 01-.271-.143 1.092 1.092 0 01-.215-.173.93.93 0 01-.152-.214 1 1 0 01-.091-.262c-.02-.096-.03-.2-.03-.314.002-.145.017-.28.046-.406a1.48 1.48 0 01.128-.357 1.558 1.558 0 01.474-.54c.1-.072.207-.134.323-.187a2.19 2.19 0 01.37-.132c.128-.035.262-.061.401-.079a3.43 3.43 0 01.43-.026c.154.001.301.01.441.026a3.079 3.079 0 01.78.2 2.266 2.266 0 01.605.36c.083.07.158.147.224.229l.026.032-.03.028-.312.295-.035.034-.032-.037a1.612 1.612 0 00-.452-.354 2.231 2.231 0 00-.586-.214 2.854 2.854 0 00-.662-.071 2.303 2.303 0 00-.594.066c-.09.022-.176.05-.257.084-.08.033-.154.073-.223.119a.987.987 0 00-.32.347.923.923 0 00-.087.231 1.204 1.204 0 00-.01.489.617.617 0 00.059.167c.028.05.062.096.104.137.042.042.092.08.15.113.06.035.127.068.203.098.077.032.162.061.257.089a15.216 15.216 0 00.683.176 16.305 16.305 0 01.972.25c.141.043.272.09.391.14.12.05.228.102.327.16.198.116.348.26.45.43.052.087.09.184.117.29a1.652 1.652 0 01-.034.836c-.049.152-.12.293-.215.422a1.61 1.61 0 01-.338.34c-.132.1-.283.184-.453.254a2.62 2.62 0 01-.553.157zm3.537-5.383V2.717h.581v2.229h1.086v.572h-1.086v4.756h-.581V5.518h-1.086v-.572h1.086zm12.158-.455l.07-.008.053-.007v.609l-.045.001a2.669 2.669 0 00-.495.064 2.298 2.298 0 00-.447.15 2.131 2.131 0 00-.734.55 2.232 2.232 0 00-.268.386c-.076.139-.14.289-.192.45v3.588h-.649v-5.77h.616v1.27a3.011 3.011 0 01.413-.551c.1-.102.203-.194.312-.276a2.36 2.36 0 01.704-.365c.124-.038.25-.064.377-.078h.006a3.206 3.206 0 00.194-.007h.001l.084-.006z" fill="#fff"/></g><defs><clipPath id="clip0_2_254"><path fill="#fff" d="M0 0h85v21H0z"/></clipPath></defs></svg>