<svg width="51" height="45" fill="none" xmlns="http://www.w3.org/2000/svg"><path d="M50.01 12.904c-8.684-11.134-8.313-10.855-8.777-10.9L27.64.171c-3.426-.461-5.754.139-6.942.246a.729.729 0 00.194 1.445c1.206-.11 3.367-.675 6.554-.246l9.334 1.257-11.698 2.384-11.698-2.384 4.043-.545a.729.729 0 00-.194-1.444L8.93 2.003h-.003l-.011.002-.033.006-.022.004-.018.004-.025.007-.038.01-.015.007a.146.146 0 00-.007.002l-.021.008a.691.691 0 00-.04.018l-.016.008a.788.788 0 00-.018.009l-.017.01c-.316.185-.162.198-8.493 10.806a.729.729 0 00-.076.776c.293.582-.487-.567 15.596 20.78a.729.729 0 001.163-.878L2.711 14.86l11.415 3.595 8.79 23.183-4.023-5.33a.729.729 0 00-1.164.877c4.212 5.581 4.646 6.16 4.676 6.193.532.6 1.268.98 1.972 1.098.104.018 1.325.017 1.427-.003.888-.172 1.637-.673 1.991-1.14L42.02 24.48a.729.729 0 00-1.163-.878L27.248 41.64l8.79-23.184 11.414-3.595-4.546 6.026a.729.729 0 001.163.878c6.104-8.098 5.775-7.607 6.016-8.083a.729.729 0 00-.075-.777zM25.082 7.107l8.792 10.03H16.29l8.792-10.03zM1.874 13.068l6.914-8.866 4.687 12.52-11.6-3.654zm8.284-9.364l13.548 2.761-8.77 10.004-4.778-12.765zm15.004 39.325h-.16l-9.265-24.434h18.69l-9.265 24.434zm10.065-26.56l-8.77-10.004 13.548-2.761-4.778 12.765zm1.461.253l4.688-12.52 6.913 8.866-11.6 3.654z" fill="#E1CBB2"/></svg>