<svg width="46" height="57" fill="none" xmlns="http://www.w3.org/2000/svg"><path d="M12.112 29.314c-4.417 4.83-1.594 10.723-6.201 18.035-1.077-.142-2.348-.665-3.569-1.48a1.016 1.016 0 01-.319-1.324c2.078-3.954 2.742-11.298 4.035-14.458.55-1.345 1.84-4.497 5.707-6.638a.95.95 0 00-.92-1.663c-4.451 2.465-5.919 6.05-6.545 7.582-1.383 3.376-2.045 10.65-3.96 14.294a2.911 2.911 0 00.947 3.788c.776.518 2.144 1.307 3.686 1.659A2.923 2.923 0 006.28 52.23a12.624 12.624 0 003.508 1.517.95.95 0 10.479-1.839 10.727 10.727 0 01-2.98-1.29 1.021 1.021 0 01-.301-1.45c5.54-7.98 2.56-14.233 6.528-18.572a.95.95 0 00-1.402-1.283zm33.456 14.348c-1.921-3.658-2.57-10.905-3.958-14.294-.81-1.978-2.94-7.182-10.782-9.25-.868-2.296 6.068-8.95-.004-13.593a4.324 4.324 0 00-.982-.562V.95a.95.95 0 00-1.9 0v4.639c-1.447-.029-3.137.425-4.987 1.355-1.849-.93-3.54-1.384-4.988-1.355V.95a.95.95 0 00-1.9 0v5.013c-.352.145-.68.332-.981.562-4.075 3.116-2.283 7.131-.975 10.063.711 1.593 1.383 3.098.844 3.75a.952.952 0 00.178 1.377 13.43 13.43 0 0010.113 2.32.95.95 0 10-.328-1.871c-2.842.497-5.661-.116-7.991-1.539.442-1.4-.302-3.066-1.08-4.81-1.504-3.37-2.289-5.73.393-7.78 1.243-.952 3.524-.656 6.265.817.28.15.627.146.907-.005 2.733-1.467 5.014-1.764 6.258-.813 2.681 2.05 1.896 4.412.393 7.78-.958 2.146-1.863 4.174-.573 5.735a.95.95 0 00.506.317c7.214 1.769 9.133 6.457 9.856 8.221 1.292 3.158 1.959 10.507 4.034 14.458.247.47.11 1.039-.319 1.324-1.22.815-2.491 1.338-3.568 1.48-4.604-7.307-1.785-13.205-6.202-18.035a.95.95 0 00-1.402 1.282c3.976 4.347.98 10.582 6.53 18.573.332.48.196 1.139-.302 1.45a10.715 10.715 0 01-2.98 1.29.95.95 0 00.48 1.838 12.62 12.62 0 003.506-1.517 2.923 2.923 0 001.307-3.122c1.542-.351 2.91-1.14 3.686-1.658a2.911 2.911 0 00.946-3.788z" fill="#E1CBB2"/><path d="M28.861 40.343c-.976-2.69-1.603-5.63-1.862-8.74a.95.95 0 10-1.894.157c.274 3.278.936 6.384 1.97 9.231.932 2.57 2.658 6.07 2.697 11.875.003.407-.233.773-.601.934a15.51 15.51 0 01-12.424.004 1.015 1.015 0 01-.61-.938c.038-5.806 1.77-9.323 2.696-11.875 1.034-2.847 1.697-5.953 1.97-9.231a.95.95 0 00-1.893-.158c-.26 3.11-.886 6.052-1.863 8.74-.909 2.505-2.769 6.313-2.81 12.511a2.913 2.913 0 001.751 2.693 17.412 17.412 0 0013.943-.005 2.907 2.907 0 001.741-2.688c-.041-6.163-1.889-9.97-2.81-12.51z" fill="#E1CBB2"/></svg>