<svg width="45" height="23" viewBox="0 0 45 23" fill="none" xmlns="http://www.w3.org/2000/svg">
<path d="M44.9496 21.7577C44.3816 19.6462 42.651 19.669 37.3684 17.2264C32.8392 15.1319 29.1964 11.4968 27.4172 9.50265C26.7397 8.7426 25.7956 8.09152 24.3672 8.09152H23.2109L23.2162 6.05698C23.2696 5.98116 23.5285 5.82627 23.7001 5.7243C24.3759 5.32075 25.5053 4.64535 25.5053 3.01759C25.5053 1.35376 24.1247 0 22.4264 0C20.7286 0 19.3473 1.35376 19.3473 3.01759C19.3473 3.45712 19.7109 3.81343 20.1596 3.81343C20.6076 3.81343 20.9715 3.45722 20.9715 3.01759C20.9715 2.23159 21.6238 1.59156 22.4264 1.59156C23.2278 1.59156 23.881 2.23149 23.881 3.01759C23.881 3.71814 23.5099 3.97348 22.8543 4.36588C22.3305 4.67951 21.6142 5.10717 21.6142 5.98207V8.09162H20.6338C19.3108 8.09162 18.2629 8.74199 17.5857 9.50275C15.8057 11.4968 12.1631 15.132 7.63452 17.2265C2.35157 19.6692 0.620865 19.6443 0.0505854 21.7595C-0.212517 22.7365 0.590655 23.2678 1.53443 22.8636C4.78643 21.4744 12.1697 18.0511 19.4947 12.8118C19.4947 12.8118 20.8928 11.6442 22.3945 11.6442H22.6056C24.1086 11.6442 25.5053 12.8118 25.5053 12.8118C32.832 18.0512 40.2142 21.4744 43.4661 22.8636C44.4101 23.2652 45.2121 22.7339 44.9496 21.7577Z" fill="#E1CBB2"/>
</svg>
