<svg width="45" height="23" fill="none" xmlns="http://www.w3.org/2000/svg"><path d="M44.95 21.758c-.568-2.112-2.299-2.089-7.582-4.532-4.529-2.094-8.172-5.73-9.95-7.723-.678-.76-1.622-1.411-3.05-1.411H23.21l.005-2.035c.054-.076.313-.23.484-.333.676-.403 1.805-1.079 1.805-2.706 0-1.664-1.38-3.018-3.079-3.018-1.697 0-3.079 1.354-3.079 3.018 0 .44.364.795.813.795a.804.804 0 00.811-.795c0-.786.653-1.426 1.455-1.426s1.455.64 1.455 1.426c0 .7-.371.955-1.027 1.348-.523.314-1.24.741-1.24 1.616v2.11h-.98c-1.323 0-2.371.65-3.048 1.41-1.78 1.995-5.423 5.63-9.951 7.725C2.352 19.669.62 19.644.05 21.759c-.264.977.54 1.509 1.483 1.105 3.252-1.39 10.636-4.813 17.96-10.052 0 0 1.399-1.168 2.9-1.168h.212c1.503 0 2.9 1.168 2.9 1.168 7.326 5.24 14.708 8.662 17.96 10.052.944.401 1.746-.13 1.484-1.106z" fill="#fff"/></svg>