<svg width="69" height="37" fill="none" xmlns="http://www.w3.org/2000/svg"><path d="M55.686 0a13.272 13.272 0 00-7.07 2.023 1.438 1.438 0 001.524 2.438 10.41 10.41 0 015.546-1.586c5.756 0 10.439 4.66 10.439 10.386a9.338 9.338 0 01-3.39 7.205L47.587 33.03a3.268 3.268 0 01-4.164 0l-6.673-5.536 5.806-4.816a12.204 12.204 0 004.43-9.418C46.987 5.949 41.015 0 33.673 0c-3.995 0-7.67 1.728-10.18 4.708C20.985 1.728 17.31 0 13.314 0 5.974 0 0 5.949 0 13.261c0 3.65 1.615 7.082 4.43 9.418l15.146 12.565a6.148 6.148 0 003.918 1.413c1.428 0 2.82-.502 3.917-1.413l7.089-5.88 7.089 5.88a6.148 6.148 0 003.917 1.412c1.429 0 2.82-.501 3.918-1.412L64.57 22.679A12.204 12.204 0 0069 13.26C69 5.95 63.028.001 55.686.001zM28.278 20.466a9.338 9.338 0 01-3.39-7.205 1.437 1.437 0 10-2.875 0c0 3.65 1.614 7.082 4.43 9.418l5.806 4.817-6.673 5.535a3.267 3.267 0 01-4.164 0L6.265 20.466a9.338 9.338 0 01-3.39-7.205c0-5.727 4.683-10.386 10.439-10.386 3.695 0 7.04 1.884 8.95 5.039a1.437 1.437 0 002.46 0c1.909-3.155 5.255-5.039 8.95-5.039 5.756 0 10.438 4.66 10.438 10.386a9.337 9.337 0 01-3.39 7.205L34.5 25.628l-6.222-5.162z" fill="#E1CBB2"/></svg>