<svg width="35" height="22" viewBox="0 0 35 22" fill="none" xmlns="http://www.w3.org/2000/svg">
<path d="M34.9608 17.5897C34.519 15.9474 33.173 15.9651 29.0643 14.0653C25.5416 12.4362 22.7083 9.60898 21.3245 8.05794C20.7976 7.46679 20.0633 6.9604 18.9523 6.9604H18.0529L18.0571 5.37798C18.0986 5.319 18.2999 5.19854 18.4334 5.11922C18.9591 4.80536 19.8375 4.28004 19.8375 3.01401C19.8375 1.71991 18.7637 0.666992 17.4428 0.666992C16.1223 0.666992 15.0479 1.71991 15.0479 3.01401C15.0479 3.35586 15.3307 3.63299 15.6797 3.63299C16.0281 3.63299 16.3112 3.35594 16.3112 3.01401C16.3112 2.40268 16.8185 1.90487 17.4428 1.90487C18.0661 1.90487 18.5741 2.4026 18.5741 3.01401C18.5741 3.55888 18.2854 3.75748 17.7756 4.06267C17.3682 4.30661 16.8111 4.63924 16.8111 5.31971V6.96047H16.0485C15.0195 6.96047 14.2045 7.46632 13.6777 8.05802C12.2933 9.60898 9.46022 12.4363 5.93796 14.0654C1.829 15.9652 0.482895 15.9459 0.0393442 17.5911C-0.165291 18.3509 0.459398 18.7642 1.19345 18.4498C3.72278 17.3693 9.46529 14.7068 15.1626 10.6317C15.1626 10.6317 16.25 9.72361 17.418 9.72361H17.5821C18.7511 9.72361 19.8375 10.6317 19.8375 10.6317C25.536 14.7068 31.2777 17.3693 33.807 18.4498C34.5412 18.7622 35.1649 18.3489 34.9608 17.5897Z" fill="#3C3C3B"/>
<path fill-rule="evenodd" clip-rule="evenodd" d="M17.8891 13.8892C18.3187 13.8892 18.6669 14.2374 18.6669 14.6669V20.8892C18.6669 21.3187 18.3187 21.6669 17.8891 21.6669C17.4596 21.6669 17.1113 21.3187 17.1113 20.8892V14.6669C17.1113 14.2374 17.4596 13.8892 17.8891 13.8892Z" fill="#3C3C3B"/>
<path fill-rule="evenodd" clip-rule="evenodd" d="M21.7773 17.7781C21.7773 18.2077 21.4291 18.5559 20.9996 18.5559L14.7773 18.5559C14.3478 18.5559 13.9996 18.2077 13.9996 17.7781C13.9996 17.3486 14.3478 17.0004 14.7773 17.0004L20.9996 17.0004C21.4291 17.0004 21.7773 17.3486 21.7773 17.7781Z" fill="#3C3C3B"/>
</svg>
