<svg width="269" height="77" viewBox="0 0 269 77" fill="none" xmlns="http://www.w3.org/2000/svg">
<path d="M211.715 29.1855C211.545 28.946 211.313 28.8224 211.027 28.8224C210.711 28.8224 210.433 28.9537 210.193 29.2087C209.954 29.4636 209.83 29.7803 209.83 30.1511C209.83 30.4987 209.899 30.8077 210.046 31.0935C210.185 31.3793 210.324 31.5801 210.456 31.696C210.587 31.8119 210.68 31.866 210.734 31.866C211.081 31.866 211.367 31.6728 211.614 31.2866C211.854 30.9004 211.977 30.4678 211.977 29.9811C211.977 29.6953 211.892 29.4327 211.715 29.1855ZM161.875 42.0007C161.844 42.0007 161.744 42.0471 161.574 42.1321C161.373 42.217 160.5 42.6264 158.963 43.3526C157.418 44.0864 155.966 44.743 154.591 45.3224C153.216 45.9094 151.624 46.4656 149.809 46.9986C147.994 47.5316 146.464 47.7866 145.205 47.7866C144.201 47.7866 143.475 47.5316 143.019 47.0141C142.556 46.5043 142.332 45.585 142.332 44.2718C142.332 43.9551 142.015 43.5611 141.389 43.0976C140.764 42.6264 140.377 42.387 140.238 42.387C139.952 42.387 138.701 42.8041 136.484 43.6307C134.267 44.4572 132.861 44.8743 132.266 44.8743C131.919 44.8743 131.749 44.7507 131.749 44.4881C131.749 44.1405 131.973 43.7697 132.413 43.3526C132.853 42.9354 133.703 42.5492 134.962 42.1784C136.221 41.8076 137.751 41.6222 139.551 41.6222C139.867 41.6222 140.022 41.5759 140.022 41.4909C140.022 41.406 139.875 41.3055 139.574 41.1897C139.273 41.0738 139.01 41.0197 138.778 41.0197C136.778 41.0197 134.738 41.3673 132.668 42.0471C131.672 42.3793 130.915 42.7655 130.405 43.2058C130.157 43.314 129.903 43.4298 129.624 43.5534C128.126 44.21 126.071 45.0906 123.476 46.1875C120.872 47.2844 118.261 48.2191 115.651 48.9916C113.04 49.7641 110.969 50.1503 109.455 50.1503C107.679 50.1503 106.798 49.5787 106.798 48.4354C106.798 45.5773 108.683 41.5759 112.453 36.4313C114.198 34.6855 115.148 33.7121 115.326 33.519C120.471 33.2332 123.908 33.0865 125.654 33.0865C126.172 33.0865 126.913 33.1096 127.886 33.156C128.86 33.2023 129.37 33.2178 129.431 33.2178C129.771 33.2178 129.941 33.0787 129.941 32.7929C129.941 32.3912 129.339 32.1904 128.141 32.1904C123.97 32.1904 119.984 32.3217 116.184 32.5766C119.127 29.4636 120.602 27.6637 120.602 27.1771C120.602 26.3814 120.401 25.9797 120 25.9797C119.66 25.9797 118.794 26.6441 117.404 27.9727C116.021 29.3013 114.554 30.9235 113.009 32.8393C111.294 32.9783 108.513 33.2796 104.651 33.7353C104.504 33.7353 104.434 33.7894 104.434 33.9053C104.434 34.1061 104.55 34.2065 104.782 34.2065C104.867 34.2065 105.238 34.1834 105.894 34.1447C106.551 34.0984 107.509 34.0366 108.768 33.9516C110.027 33.8666 111.209 33.7817 112.321 33.6967C111.178 35.1798 110.135 36.6707 109.193 38.1538C107.161 39.7529 104.99 41.0815 102.681 42.1398C102.619 42.163 102.573 42.1939 102.526 42.2325C102.155 42.4024 101.352 42.7809 100.101 43.3603C98.5558 44.0941 97.1035 44.7507 95.7285 45.3301C94.3535 45.9172 92.7623 46.4733 90.947 47.0063C89.1316 47.5394 87.5944 47.7943 86.3353 47.7943C85.3388 47.7943 84.605 47.5394 84.1492 47.0218C83.6857 46.512 83.4617 45.5927 83.4617 44.2795C83.4617 43.9628 83.145 43.5689 82.5193 43.1054C81.8936 42.6342 81.5074 42.3947 81.3606 42.3947C81.0748 42.3947 79.8234 42.8118 77.6141 43.6384C75.3971 44.4649 73.9913 44.8821 73.3887 44.8821C73.0411 44.8821 72.8712 44.7585 72.8712 44.4958C72.8712 44.1482 73.0952 43.7774 73.5355 43.3603C73.9758 42.9432 74.8255 42.5569 76.0846 42.1861C77.3438 41.8154 78.8733 41.63 80.6731 41.63C80.9898 41.63 81.1443 41.5836 81.1443 41.4986C81.1443 41.4137 80.9898 41.3133 80.6963 41.1974C80.395 41.0815 80.1324 41.0274 79.9006 41.0274C77.8999 41.0274 75.8606 41.375 73.7904 42.0548C72.7862 42.387 72.0215 42.781 71.5039 43.229C71.388 43.2908 71.2644 43.3448 71.1331 43.4066C69.5496 44.1637 68.0432 44.8589 66.6142 45.4846C65.1851 46.1103 63.5397 46.7051 61.6626 47.2613C59.7933 47.8174 58.2252 48.0955 56.966 48.0955C56.0004 48.0955 55.2666 47.7711 54.7799 47.13C54.2933 46.4811 54.0075 45.7704 53.9225 44.9825C53.8375 44.1946 53.629 43.4839 53.2968 42.835C52.9724 42.1939 52.478 41.8694 51.8214 41.8694C50.6472 41.8694 49.4422 42.2634 48.2217 43.0513C46.9935 43.8392 45.9892 44.6194 45.2245 45.4073C44.452 46.1953 44.0272 46.5892 43.9422 46.5892C43.7414 46.5892 43.6409 46.4502 43.6409 46.1566C43.6409 45.8399 43.7568 45.3378 44.004 44.6349C44.2435 43.9397 44.4829 43.2908 44.7147 42.7037C44.9464 42.1166 45.0546 41.8076 45.0546 41.7845C45.0546 41.1819 44.5447 40.8807 43.5096 40.8807C42.3123 40.8807 40.8987 41.3364 39.2379 42.163C38.898 42.3175 35.1361 45.2065 27.9598 45.0906C25.8355 45.0597 23.773 44.3722 21.6874 43.9783C19.7021 43.5998 17.7091 43.3448 15.693 43.3371C13.391 43.3294 11.1045 43.6075 8.87209 44.1714C8.78712 44.1946 5.48868 45.4846 4.09823 46.2493C3.69655 46.4733 1.46411 48.026 0.537151 49.3315C-0.351189 50.5752 0.0427692 51.5716 0.436729 51.8265C1.29417 52.3827 3.03223 51.3322 4.20638 50.3975C6.26598 48.7768 6.22985 45.3585 8.95707 44.4495C11.0891 43.9165 13.2829 43.6616 15.4844 43.6925C17.6705 43.7156 19.8103 44.0555 21.95 44.4881C23.9739 44.8975 26.0055 45.3455 28.068 45.5C30.0223 45.6468 31.9844 45.4846 33.8924 45.0211C35.8158 44.5499 37.4148 43.4221 39.1065 42.3947C40.3193 41.6531 41.6171 41.4059 42.8762 41.2823C43.2161 41.2514 43.4787 41.5064 43.4787 41.769C43.4787 42.1089 43.2393 42.835 42.7526 43.9551C42.2659 45.0675 42.0187 45.8708 42.0187 46.3575C42.0187 47.2149 42.5209 47.6475 43.5173 47.6475C43.6023 47.6475 43.8881 47.3926 44.3748 46.8982C44.8614 46.3961 45.4099 45.8554 46.0279 45.2683C46.6458 44.6812 47.3874 44.1405 48.2603 43.6384C49.1332 43.1363 49.9211 42.8891 50.6395 42.8891C50.9253 42.8891 51.1571 43.0281 51.3502 43.2985C51.5356 43.5689 51.6592 43.9088 51.7364 44.3259C51.8059 44.743 51.9527 45.1833 52.169 45.6545C52.3776 46.1257 52.6557 46.5738 52.9801 46.9832C53.3045 47.4003 53.8375 47.7402 54.5636 48.0106C55.2898 48.2809 56.1858 48.42 57.2441 48.42C60.2413 48.42 64.7602 47.0141 70.801 44.2177C70.7392 44.4108 70.7005 44.6117 70.7005 44.8203C70.7005 45.1679 70.9014 45.4691 71.3031 45.724C71.7048 45.979 72.1914 46.1103 72.7553 46.1103C73.1261 46.1103 74.4856 45.6236 76.8262 44.6581C79.1668 43.6847 80.6422 43.1981 81.2447 43.1981C81.4456 43.1981 81.546 43.3371 81.546 43.6307C81.546 45.2915 81.9863 46.4502 82.8515 47.1222C83.7244 47.7943 84.9758 48.1264 86.6057 48.1264C90.1822 48.1264 95.6204 46.2957 102.936 42.6419C103.005 42.611 103.052 42.5724 103.098 42.5415C104.936 41.6763 106.698 40.6412 108.374 39.4284C106.373 42.9432 105.377 45.8322 105.377 48.0878C105.377 49.0843 105.693 49.7641 106.319 50.1271C106.945 50.4825 107.887 50.6601 109.146 50.6601C110.49 50.6601 112.228 50.382 114.353 49.8259C116.485 49.2697 118.524 48.6285 120.486 47.8947C122.448 47.1686 124.441 46.3729 126.488 45.5155C127.755 44.9825 128.821 44.5267 129.679 44.1559C129.594 44.3722 129.547 44.5962 129.547 44.828C129.547 45.1756 129.748 45.4769 130.15 45.7318C130.551 45.9867 131.038 46.118 131.602 46.118C131.973 46.118 133.332 45.6314 135.673 44.6658C138.014 43.6925 139.489 43.2058 140.091 43.2058C140.292 43.2058 140.393 43.3448 140.393 43.6384C140.393 45.2992 140.833 46.4579 141.706 47.13C142.579 47.802 143.83 48.1342 145.452 48.1342C149.029 48.1342 154.467 46.3034 161.782 42.6496C161.983 42.5647 162.084 42.4488 162.084 42.302C162.084 42.1012 162.014 42.0007 161.875 42.0007ZM268.26 28.722C267.41 28.1658 265.335 29.1085 264.49 30.1511C262.993 31.9972 262.806 35.0254 259.562 36.2768C259.461 36.3154 259.291 36.354 259.268 36.3617C257.136 36.8947 254.934 37.1496 252.741 37.1187C250.555 37.0956 248.415 36.7557 246.275 36.3231C244.251 35.9137 242.22 35.4657 240.157 35.3112C238.203 35.1644 236.241 35.3266 234.333 35.7901C232.378 36.269 228.609 38.177 228.431 38.262C227.859 38.5478 226.608 39.0808 224.677 39.8687C222.746 40.6567 220.135 41.5373 216.836 42.5028C213.538 43.4762 210.904 43.9628 208.926 43.9628C208.3 43.9628 207.984 43.6152 207.984 42.9354C207.984 42.5338 208.239 41.7922 208.756 40.703C209.274 39.6215 209.529 38.8722 209.529 38.4706C209.529 37.5282 208.81 37.0569 207.389 37.0569C207.072 37.0569 206.725 37.1033 206.338 37.2037C205.952 37.3041 205.628 37.4046 205.373 37.505C205.118 37.6054 204.786 37.7367 204.384 37.9144C203.982 38.0843 203.727 38.2002 203.612 38.262C203.411 38.347 203.31 38.4628 203.31 38.6019C203.31 38.7718 203.38 38.8568 203.519 38.8568C203.604 38.8568 203.704 38.8336 203.82 38.7718C203.874 38.7486 204.168 38.6019 204.701 38.3392C205.226 38.0843 205.69 37.8912 206.091 37.7599C206.493 37.6286 206.871 37.5668 207.25 37.5668C207.652 37.5668 207.852 37.7522 207.852 38.123C207.852 38.3238 207.598 38.9649 207.08 40.0541C206.562 41.1356 206.308 41.9235 206.308 42.4102C206.308 43.6693 207.188 44.295 208.965 44.295C210.711 44.295 213.244 43.8238 216.574 42.8814C219.903 41.939 222.599 41.0815 224.669 40.309C226.176 39.7489 227.709 39.2419 229.072 38.4242C232.378 36.2072 236.295 35.3112 240.242 35.7206C242.359 35.9369 244.429 36.439 246.515 36.8329C248.5 37.2114 250.493 37.4664 252.509 37.4741C254.811 37.4818 257.105 37.2269 259.33 36.6398C259.762 36.5239 262.999 35.1644 264.583 34.2915C264.992 34.0675 267.333 32.6531 268.26 31.3476C269.163 30.1039 268.654 28.9769 268.26 28.722ZM187.529 19.3365C190.85 23.6237 202.847 40.0696 199.062 45.7858C198.66 46.3884 197.996 46.7514 197.27 46.7746C194.126 46.9059 190.959 45.8863 187.861 45.4537C182.168 44.3568 176.398 43.2444 170.589 43.4144C173.709 36.4235 177.827 27.9882 183.319 19.2284C184.57 17.2354 185.984 15.3506 187.158 13.3112C189.066 9.99734 189.545 8.72277 190.086 7.30915C190.232 6.92291 190.341 6.41308 190.41 6.00367C190.742 4.11112 190.348 2.04863 189.669 0.117458C189.63 0.0170374 189.506 -0.0293089 189.414 0.0324887C187.621 1.16802 185.868 2.14905 184.485 3.83303C183.087 2.12588 181.056 1.17574 179.232 0.0170336C179.171 -0.0215898 179.093 0.0093146 179.07 0.0711121C177.865 3.45453 177.61 7.19327 180.522 9.78877C179.117 7.28597 178.406 4.28879 179.487 1.5388C179.511 1.47701 179.588 1.4461 179.642 1.477C181.558 2.46576 183.157 3.92573 184.547 5.56337C185.922 3.94118 187.135 2.47349 189.004 1.477C189.097 1.43065 189.213 1.46928 189.244 1.5697C189.931 3.39273 189.777 5.4475 189.259 7.27052C189.259 7.28597 189.251 7.2937 189.251 7.30915C189.228 7.38639 189.205 7.47137 189.182 7.55634C189.136 7.70311 189.089 7.8576 189.027 8.01209C187.328 12.7164 180.747 20.5802 179.086 23.0521C176.042 27.5787 171.291 35.4502 167.684 43.9628C156.622 46.2571 164.44 56.0751 169.708 45.0211C175.756 44.6503 181.403 46.118 186.973 47.2845C190.07 47.9333 196.15 50.0653 199.363 49.3315C200.089 49.1693 200.699 48.6903 201.07 48.0492C205.512 40.3863 192.643 24.4811 187.529 19.3365ZM163.953 47.7402C163.953 46.2107 166 45.979 167.089 45.4305C166.749 46.2339 164.733 49.3469 163.953 47.7402Z" fill="#3C3C3B"/>
<path d="M64.6674 71.2772L62.9217 76.615H61.593L60.4189 72.9998L59.2061 76.615H57.8852L56.1316 71.2772H57.4139L58.619 75.0314L59.8781 71.2772H61.0214L62.2419 75.0623L63.4856 71.2772H64.6674ZM77.1119 75.6262V76.615H72.9792V71.2772H77.0115V72.266H74.2074V73.4247H76.6871V74.3826H74.2074V75.6185H77.1119V75.6262ZM90.7151 72.5441C90.4679 72.1424 90.1203 71.8334 89.68 71.6094C89.232 71.3854 88.7221 71.2772 88.1428 71.2772H85.7172V76.615H88.1428C88.7221 76.615 89.232 76.5069 89.68 76.2828C90.1203 76.0588 90.4679 75.7498 90.7151 75.3481C90.9623 74.9465 91.0859 74.483 91.0859 73.9422C91.0859 73.4092 90.9623 72.9458 90.7151 72.5441ZM89.3633 75.155C89.0466 75.4563 88.6217 75.6031 88.0887 75.6031H86.9609V72.2892H88.0887C88.6217 72.2892 89.0466 72.4359 89.3633 72.7372C89.68 73.0385 89.8422 73.4401 89.8422 73.9422C89.8345 74.4521 89.68 74.8538 89.3633 75.155ZM104.635 72.5441C104.388 72.1424 104.04 71.8334 103.6 71.6094C103.16 71.3854 102.642 71.2772 102.063 71.2772H99.6371V76.615H102.063C102.642 76.615 103.152 76.5069 103.6 76.2828C104.048 76.0588 104.388 75.7498 104.635 75.3481C104.882 74.9465 105.006 74.483 105.006 73.9422C105.006 73.4092 104.882 72.9458 104.635 72.5441ZM103.283 75.155C102.966 75.4563 102.542 75.6031 102.009 75.6031H100.881V72.2892H102.009C102.542 72.2892 102.966 72.4359 103.283 72.7372C103.6 73.0385 103.762 73.4401 103.762 73.9422C103.762 74.4521 103.6 74.8538 103.283 75.155ZM113.565 71.2772H114.801V76.615H113.565V71.2772ZM128.582 71.2772V76.615H127.57L124.912 73.3783V76.615H123.692V71.2772H124.711L127.361 74.5139V71.2772H128.582ZM141.072 73.865H142.2V76.0279C141.907 76.2442 141.574 76.4142 141.196 76.53C140.817 76.6459 140.431 76.7077 140.045 76.7077C139.489 76.7077 138.994 76.5918 138.554 76.3523C138.114 76.1129 137.766 75.7885 137.511 75.3713C137.256 74.9542 137.133 74.4753 137.133 73.95C137.133 73.4247 137.256 72.9458 137.511 72.5286C137.766 72.1115 138.114 71.7793 138.562 71.5476C139.01 71.3081 139.512 71.1923 140.068 71.1923C140.539 71.1923 140.957 71.2695 141.343 71.4317C141.721 71.5862 142.046 71.818 142.301 72.1192L141.505 72.8531C141.126 72.4514 140.663 72.2505 140.122 72.2505C139.782 72.2505 139.481 72.3201 139.218 72.4668C138.956 72.6059 138.747 72.8067 138.6 73.0694C138.454 73.332 138.376 73.6255 138.376 73.9577C138.376 74.2899 138.454 74.5834 138.6 74.8383C138.747 75.101 138.956 75.3018 139.211 75.4409C139.473 75.5876 139.775 75.6571 140.107 75.6571C140.462 75.6571 140.779 75.5799 141.065 75.4254V73.865H141.072ZM161.28 76.53C160.886 76.4142 160.57 76.2674 160.33 76.082L160.747 75.155C160.979 75.325 161.249 75.4563 161.566 75.5567C161.883 75.6571 162.199 75.7112 162.508 75.7112C162.856 75.7112 163.119 75.6571 163.289 75.5567C163.459 75.4563 163.544 75.3172 163.544 75.1396C163.544 75.016 163.497 74.9078 163.397 74.8229C163.296 74.7379 163.173 74.6684 163.018 74.622C162.864 74.568 162.655 74.5139 162.393 74.4521C161.983 74.3517 161.651 74.259 161.396 74.1663C161.133 74.0736 160.917 73.9114 160.732 73.7028C160.546 73.4865 160.454 73.2084 160.454 72.8453C160.454 72.5364 160.539 72.2583 160.709 72.0034C160.878 71.7484 161.126 71.5553 161.466 71.4085C161.805 71.2618 162.215 71.1845 162.702 71.1845C163.041 71.1845 163.374 71.2232 163.698 71.3081C164.022 71.3931 164.308 71.509 164.555 71.6558L164.177 72.5904C163.683 72.3123 163.188 72.1733 162.702 72.1733C162.354 72.1733 162.099 72.2274 161.937 72.3432C161.775 72.4514 161.69 72.6059 161.69 72.7835C161.69 72.9612 161.782 73.1003 161.975 73.193C162.169 73.2857 162.454 73.3706 162.848 73.4556C163.258 73.556 163.59 73.6487 163.845 73.7414C164.107 73.8418 164.324 73.9886 164.509 74.1972C164.694 74.4057 164.787 74.6915 164.787 75.0469C164.787 75.3481 164.702 75.6262 164.532 75.8812C164.362 76.1361 164.107 76.3292 163.768 76.476C163.428 76.6227 163.01 76.7 162.524 76.7C162.084 76.7077 161.674 76.6459 161.28 76.53ZM174.273 72.2814H172.566V71.2772H177.216V72.2814H175.509V76.615H174.273V72.2814ZM187.961 74.7225V76.615H186.725V74.707L184.663 71.2772H185.976L187.405 73.6487L188.834 71.2772H190.047L187.961 74.7225ZM198.127 71.2772H199.363V75.6108H202.036V76.615H198.127V71.2772ZM214.488 75.6262V76.615H210.355V71.2772H214.387V72.266H211.583V73.4247H214.063V74.3826H211.583V75.6185H214.488V75.6262ZM245.997 63.6993L245.85 63.483C245.502 63.174 245.17 63.1122 244.838 63.2822L244.769 63.3208L244.661 63.3903C244.406 63.6684 244.352 63.9388 244.491 64.2091L244.56 64.3018C244.792 64.5645 245.008 64.6417 245.217 64.5336C245.441 64.4177 245.51 64.2323 245.433 63.9774C245.41 63.931 245.363 63.9002 245.294 63.8924L245.232 63.9233C245.263 64.0933 245.24 64.2014 245.155 64.24L245.101 64.2709C244.985 64.3327 244.861 64.2864 244.745 64.1242L244.722 64.0778C244.622 63.8924 244.691 63.707 244.908 63.5139L245.062 63.429C245.394 63.3826 245.634 63.4907 245.773 63.7611L245.819 63.8538C245.951 64.3559 245.788 64.719 245.333 64.9584L245.248 65.0048C244.861 65.2056 244.267 65.1284 243.471 64.773C242.907 64.4563 242.552 64.2709 242.011 64.2169H162.192C162.192 64.2169 162.192 64.2169 162.192 64.2246C137.376 64.2246 123.464 64.2246 98.6484 64.2246H75.6597H27.6121H18.8291C18.2961 64.2787 17.933 64.4641 17.3691 64.7808C16.5735 65.1361 15.9864 65.2134 15.5925 65.0125L15.5075 64.9662C15.0517 64.7267 14.8895 64.3636 15.0208 63.8615L15.0672 63.7688C15.2062 63.4985 15.4457 63.3826 15.7778 63.4367L15.9401 63.5216C16.1641 63.707 16.2259 63.8924 16.1255 64.0856L16.1023 64.1319C15.9864 64.2941 15.8628 64.3405 15.7469 64.2787L15.6929 64.2478C15.6079 64.2091 15.5847 64.101 15.6156 63.9311L15.5538 63.9001C15.492 63.9079 15.4457 63.9388 15.4148 63.9851C15.3375 64.24 15.4071 64.4254 15.6311 64.5413C15.8396 64.6494 16.0559 64.5722 16.2877 64.3096L16.3572 64.2169C16.4962 63.9465 16.4422 63.6761 16.1873 63.398L16.0791 63.3285L16.0096 63.2899C15.6774 63.12 15.3375 63.1817 14.9899 63.4907L14.8432 63.707C14.6423 64.0933 14.7041 64.495 15.0208 64.9121C15.0981 65.0048 15.2371 65.1129 15.4302 65.2288C15.8396 65.4374 16.3804 65.4296 17.0679 65.1902C17.0679 65.1902 17.8944 64.8039 17.9408 64.8348C17.9794 64.8503 17.8635 64.9739 17.8094 65.2983C17.7013 65.9086 17.933 66.3411 18.3888 66.5806C18.7596 66.7737 19.1226 66.7119 19.478 66.403L19.5939 66.2485L19.6634 66.1171C19.8101 65.6614 19.7174 65.3447 19.3698 65.167C19.1149 65.0357 18.8832 65.0743 18.6823 65.2906L18.6128 65.3833C18.5124 65.6536 18.551 65.8313 18.7287 65.924C18.8214 65.9626 18.8832 65.9472 18.9141 65.8777C18.8291 65.7077 18.8059 65.5919 18.8446 65.5223L18.8677 65.476C18.9218 65.3679 19.0377 65.337 19.1999 65.3987L19.2926 65.4451C19.4625 65.5301 19.5166 65.7232 19.4471 66.0013L19.393 66.1017C18.9141 66.6888 18.4042 66.2871 18.4042 66.2871C17.8481 65.8777 18.0798 65.2906 18.1493 65.0898C18.327 64.5799 18.8523 64.5645 18.8523 64.5645H27.6044H232.038V64.5567H241.965C241.965 64.5567 242.49 64.5722 242.668 65.082C242.737 65.2829 242.969 65.8699 242.413 66.2794C242.413 66.2794 241.911 66.681 241.424 66.094L241.37 65.9935C241.3 65.7077 241.354 65.5223 241.524 65.4374L241.617 65.391C241.787 65.3369 241.895 65.3601 241.949 65.4683L241.972 65.5146C242.003 65.5764 241.98 65.7 241.903 65.8699C241.941 65.9395 242.003 65.9549 242.088 65.9163C242.266 65.8236 242.304 65.6459 242.204 65.3756L242.135 65.2829C241.934 65.0666 241.702 65.028 241.447 65.1593C241.107 65.3369 241.007 65.6537 241.154 66.1094L241.223 66.2407L241.339 66.3952C241.694 66.7042 242.057 66.766 242.428 66.5729C242.884 66.3334 243.116 65.9008 243.007 65.2906C242.953 64.9662 242.837 64.8426 242.876 64.8271C242.922 64.8039 243.749 65.1825 243.749 65.1825C244.436 65.4219 244.977 65.4296 245.387 65.2211C245.58 65.1052 245.711 64.9971 245.796 64.9044C246.136 64.4872 246.19 64.0856 245.997 63.6993Z" fill="#3C3C3B"/>
</svg>
