<svg width="544" height="156" fill="none" xmlns="http://www.w3.org/2000/svg"><path d="M130.926 144.309l-3.534 10.807h-2.69l-2.377-7.32-2.456 7.32h-2.674l-3.55-10.807h2.596l2.439 7.6 2.55-7.6h2.314l2.471 7.663 2.518-7.663h2.393zm25.195 8.805v2.002h-8.367v-10.807h8.164v2.002h-5.677v2.345h5.02v1.94h-5.02v2.502h5.88v.016zm27.542-6.24c-.501-.814-1.205-1.439-2.096-1.893-.907-.453-1.939-.672-3.112-.672h-4.911v10.807h4.911c1.173 0 2.205-.219 3.112-.673.891-.453 1.595-1.079 2.096-1.892.5-.814.75-1.752.75-2.847 0-1.079-.25-2.017-.75-2.83zm-2.737 5.286c-.642.61-1.502.907-2.581.907h-2.283v-6.71h2.283c1.079 0 1.939.298 2.581.908.641.61.969 1.423.969 2.439-.015 1.033-.328 1.846-.969 2.456zm30.919-5.286c-.5-.814-1.204-1.439-2.096-1.893-.891-.453-1.939-.672-3.112-.672h-4.911v10.807h4.911c1.173 0 2.205-.219 3.112-.673.907-.453 1.596-1.079 2.096-1.892.5-.814.751-1.752.751-2.847 0-1.079-.251-2.017-.751-2.83zm-2.737 5.286c-.641.61-1.501.907-2.58.907h-2.284v-6.71h2.284c1.079 0 1.939.298 2.58.908.641.61.97 1.423.97 2.439 0 1.033-.329 1.846-.97 2.456zm20.816-7.851h2.503v10.807h-2.503v-10.807zm30.403 0v10.807h-2.048l-5.38-6.553v6.553h-2.471v-10.807h2.064l5.364 6.553v-6.553h2.471zm25.289 5.239h2.284v4.379a6.709 6.709 0 01-2.033 1.017 7.982 7.982 0 01-2.331.359c-1.126 0-2.127-.234-3.018-.719a5.498 5.498 0 01-2.111-1.986c-.516-.845-.767-1.815-.767-2.878 0-1.064.251-2.033.767-2.878a5.32 5.32 0 012.127-1.986c.907-.485 1.923-.719 3.049-.719.954 0 1.799.156 2.581.484a4.979 4.979 0 011.939 1.392l-1.611 1.486c-.766-.813-1.704-1.22-2.799-1.22-.688 0-1.298.141-1.83.438a3.031 3.031 0 00-1.251 1.22 3.617 3.617 0 00-.454 1.799c0 .672.157 1.266.454 1.782.297.532.719.939 1.235 1.22.532.298 1.142.438 1.815.438.719 0 1.36-.156 1.939-.469v-3.159h.015zm40.913 5.396c-.797-.235-1.438-.532-1.923-.908l.844-1.876c.469.344 1.017.61 1.658.813a6.337 6.337 0 001.908.313c.704 0 1.236-.11 1.58-.313.344-.203.516-.485.516-.845a.807.807 0 00-.297-.641 2.095 2.095 0 00-.767-.406c-.312-.11-.735-.219-1.267-.344-.828-.204-1.501-.391-2.017-.579-.532-.188-.97-.516-1.345-.938-.375-.438-.563-1.001-.563-1.736 0-.626.172-1.189.516-1.705.344-.516.845-.907 1.533-1.204.688-.298 1.517-.454 2.502-.454a7.93 7.93 0 012.018.25 6.742 6.742 0 011.736.704l-.767 1.892c-1.001-.563-2.002-.844-2.987-.844-.704 0-1.22.109-1.548.344-.329.219-.501.532-.501.891 0 .36.188.642.579.829.391.188.97.36 1.767.532.829.203 1.502.391 2.018.579.531.203.969.5 1.345.922.375.423.563 1.001.563 1.721 0 .61-.172 1.173-.516 1.689-.344.516-.861.907-1.549 1.204-.688.297-1.532.454-2.518.454a8.349 8.349 0 01-2.518-.344zm26.306-8.602h-3.456v-2.033h9.415v2.033h-3.457v8.774h-2.502v-8.774zm27.713 4.942v3.832h-2.502v-3.863l-4.176-6.944h2.659l2.893 4.801 2.893-4.801h2.456l-4.223 6.975zm20.582-6.975h2.502v8.773h5.411v2.034h-7.913v-10.807zm33.124 8.805v2.002h-8.367v-10.807h8.164v2.002h-5.677v2.345h5.02v1.94h-5.02v2.502h5.88v.016zm63.794-24.148l-.297-.438c-.704-.625-1.377-.75-2.049-.406l-.141.078-.219.141c-.516.563-.625 1.11-.344 1.658l.141.187c.469.532.907.688 1.329.469.454-.234.594-.61.438-1.126-.047-.093-.141-.156-.281-.172l-.126.063c.063.344.016.563-.156.641l-.109.063c-.235.125-.485.031-.72-.297l-.047-.094c-.203-.376-.062-.751.376-1.142l.312-.172c.673-.094 1.158.125 1.439.672l.094.188c.266 1.017-.063 1.752-.985 2.237l-.172.093c-.782.407-1.987.251-3.597-.469-1.142-.641-1.861-1.016-2.956-1.126H328.375v.016H38.121c-1.079.109-1.814.485-2.955 1.126-1.611.719-2.8.876-3.597.469l-.172-.094c-.923-.485-1.252-1.22-.986-2.236l.094-.188c.282-.547.766-.782 1.439-.672l.328.172c.454.375.579.75.376 1.141l-.047.094c-.235.329-.485.422-.72.297l-.11-.062c-.171-.078-.218-.297-.156-.641l-.125-.063a.384.384 0 00-.281.172c-.157.516-.016.891.438 1.126.422.219.86.063 1.33-.469l.14-.188c.281-.547.172-1.095-.344-1.658l-.22-.14-.14-.079c-.672-.344-1.36-.219-2.064.407l-.297.438c-.407.782-.282 1.595.36 2.44.156.187.437.406.828.641.829.422 1.924.407 3.316-.078 0 0 1.673-.782 1.767-.72.078.032-.157.282-.266.939-.219 1.235.25 2.111 1.173 2.596.75.391 1.486.266 2.205-.36l.235-.313.14-.266c.298-.922.11-1.563-.594-1.923-.516-.266-.985-.188-1.392.25l-.14.188c-.204.547-.126.907.234 1.095.188.078.313.046.376-.094-.172-.344-.22-.579-.141-.72l.047-.094c.11-.219.344-.281.672-.156l.188.094c.344.172.453.563.313 1.126l-.11.203c-.97 1.189-2.002.376-2.002.376-1.126-.829-.657-2.018-.516-2.425.36-1.032 1.423-1.063 1.423-1.063h431.619v-.016h20.097s1.063.032 1.423 1.064c.141.406.61 1.595-.516 2.424 0 0-1.017.813-2.002-.375l-.109-.204c-.141-.578-.032-.954.312-1.126l.188-.094c.344-.109.563-.062.673.157l.047.094c.062.125.015.375-.141.719.078.141.203.172.375.094.36-.188.438-.547.235-1.095l-.141-.188c-.407-.437-.876-.516-1.392-.25-.688.36-.891 1.001-.594 1.924l.141.266.234.313c.72.625 1.455.75 2.205.359.923-.485 1.392-1.36 1.173-2.596-.109-.657-.344-.907-.266-.938.094-.047 1.768.719 1.768.719 1.392.485 2.486.501 3.315.078.391-.234.657-.453.829-.641.688-.844.798-1.658.407-2.44zM428.64 59.09c-.344-.486-.813-.736-1.392-.736-.641 0-1.204.266-1.689.782-.485.516-.735 1.157-.735 1.908 0 .704.141 1.33.438 1.908.281.579.563.986.829 1.22.266.235.453.344.563.344.704 0 1.282-.39 1.783-1.173a4.913 4.913 0 00.735-2.643c0-.579-.172-1.11-.532-1.61zM327.734 85.034c-.063 0-.266.094-.61.266-.407.172-2.174 1-5.286 2.471a218.004 218.004 0 01-8.852 3.988c-2.784 1.189-6.006 2.315-9.681 3.394-3.675 1.079-6.772 1.595-9.321 1.595-2.033 0-3.503-.516-4.426-1.564-.938-1.032-1.392-2.893-1.392-5.552 0-.641-.641-1.439-1.908-2.377-1.267-.954-2.049-1.439-2.33-1.439-.579 0-3.113.845-7.601 2.518-4.489 1.674-7.335 2.518-8.539 2.518-.704 0-1.048-.25-1.048-.782 0-.704.453-1.454 1.345-2.299.891-.845 2.612-1.626 5.161-2.377 2.549-.75 5.646-1.126 9.29-1.126.641 0 .954-.094.954-.266 0-.172-.297-.375-.907-.61-.61-.235-1.142-.344-1.611-.344-4.051 0-8.18.704-12.371 2.08-2.017.672-3.55 1.454-4.582 2.346-.501.219-1.017.454-1.58.704a1099.19 1099.19 0 01-12.449 5.333 151.476 151.476 0 01-15.843 5.677c-5.286 1.564-9.477 2.346-12.543 2.346-3.597 0-5.38-1.158-5.38-3.472 0-5.787 3.816-13.888 11.448-24.304 3.535-3.534 5.459-5.505 5.818-5.896 10.416-.579 17.376-.876 20.91-.876 1.048 0 2.55.047 4.52.14 1.971.095 3.003.126 3.128.126.688 0 1.032-.281 1.032-.86 0-.813-1.22-1.22-3.644-1.22-8.445 0-16.515.266-24.21.782 5.959-6.303 8.946-9.947 8.946-10.932 0-1.61-.406-2.424-1.22-2.424-.688 0-2.439 1.345-5.255 4.035-2.799 2.69-5.771 5.974-8.898 9.853-3.472.281-9.103.891-16.922 1.814-.298 0-.438.11-.438.344 0 .407.234.61.703.61.172 0 .923-.047 2.253-.125 1.329-.094 3.268-.22 5.817-.391a812.74 812.74 0 007.195-.516 121.658 121.658 0 00-6.334 9.024 65.142 65.142 0 01-13.184 8.07c-.126.047-.219.11-.313.187-.751.344-2.377 1.11-4.911 2.284a218.143 218.143 0 01-8.852 3.988c-2.784 1.188-6.006 2.314-9.681 3.394-3.675 1.079-6.787 1.595-9.337 1.595-2.017 0-3.503-.516-4.426-1.564-.938-1.032-1.392-2.893-1.392-5.552 0-.641-.641-1.439-1.908-2.377-1.266-.954-2.048-1.44-2.345-1.44-.579 0-3.113.845-7.586 2.519-4.488 1.673-7.335 2.518-8.554 2.518-.704 0-1.048-.25-1.048-.782 0-.704.453-1.455 1.345-2.3.891-.844 2.612-1.626 5.161-2.377 2.549-.75 5.646-1.126 9.29-1.126.641 0 .954-.093.954-.265 0-.172-.313-.376-.907-.61-.61-.235-1.142-.344-1.611-.344-4.051 0-8.18.703-12.371 2.08-2.033.672-3.582 1.47-4.629 2.377-.235.125-.485.234-.751.36a304.782 304.782 0 01-9.149 4.207c-2.894 1.266-6.225 2.47-10.025 3.597-3.785 1.126-6.96 1.689-9.509 1.689-1.955 0-3.441-.657-4.426-1.955-.985-1.314-1.564-2.753-1.736-4.348-.172-1.595-.594-3.034-1.267-4.348-.657-1.298-1.658-1.955-2.987-1.955-2.377 0-4.817.798-7.288 2.393-2.487 1.595-4.52 3.175-6.068 4.77-1.564 1.595-2.424 2.393-2.596 2.393-.407 0-.61-.282-.61-.876 0-.641.235-1.658.735-3.08.485-1.408.97-2.722 1.439-3.91.469-1.19.688-1.815.688-1.862 0-1.22-1.032-1.83-3.128-1.83-2.424 0-5.286.923-8.649 2.597-.688.312-8.304 6.161-22.833 5.927-4.301-.063-8.477-1.454-12.7-2.252-4.019-.767-8.054-1.283-12.136-1.298-4.66-.016-9.29.547-13.81 1.689-.171.047-6.85 2.659-9.665 4.207-.813.453-5.333 3.597-7.21 6.24-1.798 2.518-1 4.535-.203 5.052 1.736 1.126 5.255-1.001 7.632-2.894 3.816-3.002 3.676-9.102 9.009-11.948.234 0 .516-.063.61-.094A51.504 51.504 0 0131.35 88.46c4.426.047 8.758.735 13.09 1.611 4.098.829 8.21 1.736 12.387 2.049a37.881 37.881 0 0011.792-.97c3.894-.954 7.132-3.237 10.556-5.317 2.456-1.502 5.083-2.002 7.633-2.252.688-.063 1.22.453 1.22.985 0 .688-.485 2.158-1.47 4.426-.986 2.252-1.486 3.879-1.486 4.864 0 1.736 1.016 2.612 3.034 2.612.172 0 .75-.517 1.736-1.517a114.42 114.42 0 013.347-3.3c1.25-1.189 2.752-2.284 4.52-3.3 1.767-1.017 3.362-1.517 4.816-1.517.579 0 1.048.281 1.439.829.375.547.626 1.235.782 2.08.141.844.438 1.736.876 2.69.422.954.985 1.86 1.642 2.69.657.844 1.736 1.532 3.206 2.08 1.47.547 3.284.829 5.427.829 6.068 0 15.217-2.847 27.447-8.508a3.993 3.993 0 00-.203 1.22c0 .703.407 1.313 1.22 1.83.813.516 1.798.781 2.94.781.751 0 3.503-.985 8.242-2.94 4.739-1.97 7.726-2.956 8.946-2.956.407 0 .61.282.61.876 0 3.363.891 5.709 2.643 7.07 1.767 1.36 4.301 2.032 7.601 2.032 7.241 0 18.251-3.706 33.062-11.104.14-.062.234-.14.328-.203a66.492 66.492 0 0010.682-6.303c-4.051 7.116-6.068 12.965-6.068 17.532 0 2.018.641 3.394 1.908 4.129 1.267.719 3.175 1.079 5.724 1.079 2.721 0 6.24-.563 10.541-1.689a126.738 126.738 0 0012.418-3.91 309.817 309.817 0 0012.151-4.817 713.196 713.196 0 006.46-2.752 3.698 3.698 0 00-.266 1.36c0 .704.406 1.314 1.22 1.83.813.516 1.798.782 2.94.782.75 0 3.503-.985 8.242-2.94 4.739-1.97 7.726-2.956 8.946-2.956.406 0 .61.281.61.876 0 3.362.891 5.708 2.658 7.069 1.768 1.36 4.301 2.033 7.585 2.033 7.241 0 18.252-3.707 33.062-11.104.407-.172.61-.407.61-.704 0-.406-.141-.61-.422-.61zM543.121 58.15c-1.72-1.126-5.255 1-7.632 2.893-4.082 3.222-3.409 9.869-9.978 12.402-.203.079-.547.157-.594.172a51.595 51.595 0 01-13.216 1.533c-4.426-.047-8.758-.735-13.09-1.61-4.098-.83-8.211-1.737-12.386-2.05a37.897 37.897 0 00-11.793.97c-3.956.97-11.588 4.833-11.948 5.005-1.157.578-3.691 1.657-7.601 3.253-3.91 1.595-9.196 3.378-15.874 5.333-6.678 1.97-12.011 2.956-16.015 2.956-1.267 0-1.908-.704-1.908-2.08 0-.814.516-2.315 1.564-4.52 1.048-2.19 1.564-3.707 1.564-4.52 0-1.908-1.454-2.862-4.332-2.862-.641 0-1.345.094-2.127.297-.782.203-1.439.407-1.955.61s-1.189.47-2.002.829c-.813.344-1.329.579-1.564.704-.406.172-.61.406-.61.688 0 .344.141.516.422.516.173 0 .376-.047.61-.172.11-.047.704-.344 1.783-.876 1.064-.516 2.002-.907 2.815-1.173a7.454 7.454 0 012.346-.39c.814 0 1.22.374 1.22 1.125 0 .407-.516 1.705-1.564 3.91-1.048 2.19-1.564 3.785-1.564 4.77 0 2.55 1.783 3.816 5.38 3.816 3.535 0 8.665-.954 15.405-2.862 6.741-1.908 12.199-3.644 16.39-5.208 4.207-1.564 6.866-2.612 8.039-3.128.329-.14.798-.641.876-.688 6.694-4.489 14.623-6.303 22.615-5.474 4.285.438 8.476 1.455 12.699 2.252 4.019.767 8.054 1.283 12.136 1.298 4.661.016 9.306-.5 13.81-1.689.876-.234 7.429-2.987 10.635-4.754.829-.454 5.333-3.597 7.209-6.24 1.83-2.518 1.033-4.52.235-5.036zM379.673 39.149c6.725 8.68 31.013 41.976 23.349 53.55a4.51 4.51 0 01-3.628 2.001c-6.365.266-12.777-1.798-19.049-2.674-11.526-2.22-23.209-4.473-34.97-4.129 6.319-14.154 14.655-31.232 25.774-48.967 2.534-4.035 5.396-7.851 7.773-11.98 3.863-6.71 4.833-9.29 5.927-12.152.298-.782.516-1.814.657-2.643.673-3.832-.125-8.007-1.501-11.917a.35.35 0 00-.516-.172c-3.629 2.299-7.179 4.285-9.978 7.694-2.831-3.456-6.944-5.38-10.635-7.726a.225.225 0 00-.329.11c-2.439 6.85-2.955 14.42 2.941 19.674-2.847-5.067-4.286-11.135-2.096-16.703.047-.125.203-.187.313-.125 3.878 2.002 7.116 4.958 9.931 8.274 2.784-3.285 5.239-6.256 9.024-8.274.188-.093.422-.015.485.188 1.392 3.691 1.079 7.851.031 11.542 0 .031-.016.047-.016.078-.047.157-.094.329-.14.5-.094.298-.188.61-.313.923-3.441 9.525-16.766 25.446-20.128 30.45-6.162 9.165-15.781 25.102-23.084 42.337-22.396 4.645-6.569 24.522 4.097 2.142 12.246-.75 23.679 2.221 34.955 4.583 6.271 1.313 18.579 5.63 25.085 4.144 1.471-.328 2.706-1.298 3.457-2.596 8.992-15.515-17.063-47.716-27.416-58.132zm-47.732 57.506c0-3.096 4.144-3.566 6.35-4.676-.689 1.627-4.77 7.93-6.35 4.676z" fill="#3C3C3B"/></svg>