<svg width="241" height="69" fill="none" xmlns="http://www.w3.org/2000/svg"><path d="M57.762 63.666l-1.56 4.767h-1.186l-1.05-3.229-1.083 3.23h-1.18l-1.566-4.768h1.146l1.076 3.353 1.125-3.353h1.02l1.091 3.38 1.111-3.38h1.056zm11.115 3.884v.883h-3.691v-4.767h3.601v.883h-2.504v1.035h2.215v.855h-2.215v1.104h2.594v.007zm12.15-2.753a2.26 2.26 0 00-.924-.835c-.4-.2-.855-.296-1.373-.296h-2.166v4.767h2.166c.517 0 .973-.096 1.373-.296.393-.2.704-.476.925-.835.22-.359.33-.773.33-1.256 0-.476-.11-.89-.33-1.249zM79.82 67.13c-.283.27-.662.4-1.138.4h-1.008v-2.96h1.008c.476 0 .855.132 1.138.4.283.27.428.629.428 1.077-.007.455-.145.814-.428 1.083zm13.641-2.332a2.26 2.26 0 00-.924-.835c-.394-.2-.856-.296-1.374-.296h-2.166v4.767h2.166c.518 0 .973-.096 1.374-.296.4-.2.703-.476.924-.835.22-.359.331-.773.331-1.256 0-.476-.11-.89-.33-1.249zm-1.207 2.332c-.283.27-.663.4-1.139.4h-1.007v-2.96h1.007c.476 0 .856.132 1.139.4.282.27.427.629.427 1.077 0 .455-.144.814-.427 1.083zm9.183-3.463h1.104v4.767h-1.104v-4.767zm13.413 0v4.767h-.903l-2.374-2.89v2.89h-1.09v-4.767h.911l2.366 2.89v-2.89h1.09zm11.157 2.311h1.008v1.932a2.955 2.955 0 01-.897.449 3.509 3.509 0 01-1.028.158c-.497 0-.939-.103-1.332-.317a2.419 2.419 0 01-.931-.876 2.392 2.392 0 01-.339-1.27c0-.47.111-.897.339-1.27.227-.372.538-.669.938-.876.4-.214.849-.317 1.345-.317.421 0 .794.069 1.139.214.338.138.628.345.855.614l-.71.655a1.636 1.636 0 00-1.235-.538c-.304 0-.573.062-.808.193a1.34 1.34 0 00-.552.538c-.131.235-.2.497-.2.794 0 .297.069.559.2.787.131.234.318.413.545.538.235.13.504.193.801.193.317 0 .6-.07.855-.207v-1.394h.007zm18.05 2.38c-.352-.103-.635-.234-.849-.4l.373-.828c.207.152.449.27.731.36.283.089.566.137.842.137.311 0 .545-.048.697-.138.152-.09.228-.214.228-.372a.358.358 0 00-.131-.283.929.929 0 00-.338-.18 5.963 5.963 0 00-.559-.151 8.914 8.914 0 01-.89-.256 1.428 1.428 0 01-.594-.414c-.165-.193-.248-.441-.248-.766 0-.276.076-.524.228-.752.151-.227.372-.4.676-.531.303-.131.669-.2 1.104-.2.303 0 .6.034.89.11.29.076.545.18.766.31l-.338.836c-.442-.249-.884-.373-1.318-.373-.311 0-.538.048-.683.152a.462.462 0 00-.221.393c0 .159.083.283.255.366.173.083.428.159.78.235.365.09.662.172.89.255.234.09.428.22.593.407.166.186.249.441.249.759 0 .269-.076.517-.228.745-.152.228-.38.4-.683.531-.304.131-.676.2-1.111.2a3.667 3.667 0 01-1.111-.151zm11.606-3.794h-1.525v-.897h4.153v.897h-1.524v3.87h-1.104v-3.87zm12.226 2.18v1.69h-1.104V66.73l-1.842-3.063h1.173l1.276 2.118 1.277-2.118h1.083l-1.863 3.077zm9.08-3.077h1.104v3.87h2.387v.897h-3.491v-4.767zm14.614 3.884v.883h-3.692v-4.767h3.602v.883h-2.505v1.035h2.215v.855h-2.215v1.104h2.595v.007zm28.144-10.653l-.131-.193c-.311-.276-.607-.331-.904-.18l-.062.035-.097.062c-.227.248-.276.49-.151.731l.062.083c.207.235.4.304.586.207.2-.103.262-.269.193-.497-.02-.041-.062-.069-.124-.075l-.055.027c.028.152.007.249-.069.283l-.048.028c-.104.055-.214.013-.318-.131l-.02-.042c-.09-.165-.028-.331.165-.504l.138-.075c.297-.042.511.055.635.296l.041.083c.118.449-.027.773-.434.987l-.076.041c-.345.18-.877.11-1.587-.207-.504-.283-.821-.448-1.304-.497h-71.296v.007H16.818c-.476.048-.8.214-1.304.497-.71.317-1.235.386-1.587.207l-.076-.041c-.407-.214-.552-.539-.434-.987l.041-.083c.124-.241.338-.345.635-.297l.145.076c.2.166.255.332.165.504l-.02.041c-.104.145-.214.187-.318.131l-.048-.027c-.076-.035-.097-.131-.069-.283l-.055-.028a.17.17 0 00-.124.076c-.07.228-.007.394.193.497.186.097.38.028.586-.207l.062-.083c.125-.241.076-.483-.151-.731l-.097-.062-.062-.035c-.297-.151-.6-.096-.91.18l-.132.193c-.18.345-.124.704.159 1.076.069.083.193.18.365.283.366.187.85.18 1.463-.034 0 0 .739-.345.78-.318.034.014-.07.124-.117.414-.097.545.11.932.517 1.146.331.172.655.117.973-.159l.103-.138.063-.117c.13-.407.048-.69-.263-.849-.227-.117-.434-.083-.614.11l-.062.083c-.09.242-.055.4.104.483.082.035.138.02.165-.041-.076-.152-.096-.256-.062-.318l.02-.041c.05-.097.153-.124.297-.069l.083.041c.152.076.2.249.138.497l-.048.09c-.428.524-.883.166-.883.166-.497-.366-.29-.89-.228-1.07.159-.455.628-.47.628-.47h190.42v-.006h8.866s.469.014.628.47c.062.178.269.703-.228 1.069 0 0-.448.358-.883-.166l-.048-.09c-.062-.255-.014-.42.138-.496l.083-.042c.152-.048.248-.028.297.07l.02.04c.028.056.007.166-.062.318.035.062.09.076.166.041.158-.083.193-.241.103-.483l-.062-.082c-.179-.194-.386-.228-.614-.11-.304.158-.393.44-.262.848l.062.117.103.138c.318.276.642.331.973.159.407-.214.614-.6.518-1.146-.049-.29-.152-.4-.118-.414.042-.02.78.318.78.318.614.214 1.097.22 1.463.034.172-.103.29-.2.366-.283.303-.372.351-.73.179-1.076z" fill="#fff"/><path d="M189.106 26.069a.722.722 0 00-.614-.325c-.283 0-.531.118-.745.346a1.19 1.19 0 00-.325.841c0 .31.062.587.194.842.124.255.248.435.365.538.117.104.2.152.249.152.31 0 .565-.172.786-.518a2.16 2.16 0 00.324-1.166c0-.255-.075-.49-.234-.71zm-44.517 11.447c-.028 0-.118.04-.27.117-.179.076-.959.441-2.332 1.09a96.516 96.516 0 01-3.905 1.76c-1.228.524-2.649 1.02-4.271 1.497-1.621.476-2.988.703-4.112.703-.897 0-1.546-.227-1.953-.69-.414-.455-.614-1.276-.614-2.449 0-.283-.283-.635-.842-1.049-.559-.42-.904-.634-1.028-.634-.255 0-1.373.372-3.353 1.11-1.98.739-3.236 1.111-3.767 1.111-.311 0-.463-.11-.463-.345 0-.31.2-.641.594-1.014.393-.373 1.152-.718 2.277-1.049 1.124-.331 2.491-.497 4.098-.497.283 0 .421-.041.421-.117 0-.076-.131-.166-.4-.269a1.998 1.998 0 00-.711-.152c-1.787 0-3.608.31-5.458.918-.89.297-1.566.642-2.021 1.035-.221.096-.449.2-.697.31a489.01 489.01 0 01-5.492 2.353 66.854 66.854 0 01-6.99 2.505c-2.332.69-4.181 1.035-5.533 1.035-1.587 0-2.374-.51-2.374-1.532 0-2.553 1.684-6.127 5.051-10.722 1.559-1.56 2.408-2.429 2.566-2.601 4.596-.256 7.666-.387 9.225-.387.463 0 1.125.02 1.994.062.87.042 1.325.056 1.38.056.304 0 .456-.125.456-.38 0-.359-.538-.538-1.608-.538-3.726 0-7.286.117-10.681.345 2.629-2.78 3.947-4.389 3.947-4.823 0-.71-.179-1.07-.538-1.07-.304 0-1.077.594-2.318 1.78-1.236 1.187-2.547 2.636-3.926 4.347-1.532.125-4.016.394-7.466.8-.131 0-.193.049-.193.152 0 .18.103.27.31.27.076 0 .407-.021.994-.056.586-.041 1.442-.096 2.567-.172 1.124-.076 2.18-.152 3.173-.228a53.884 53.884 0 00-2.794 3.981 28.72 28.72 0 01-5.816 3.56.46.46 0 00-.138.083c-.332.152-1.05.49-2.167 1.008a96.333 96.333 0 01-3.905 1.76c-1.228.524-2.65 1.02-4.271 1.497-1.622.476-2.995.703-4.12.703-.89 0-1.545-.227-1.952-.69-.414-.455-.614-1.276-.614-2.45 0-.282-.283-.634-.842-1.048-.559-.42-.904-.635-1.035-.635-.255 0-1.373.373-3.346 1.111-1.98.739-3.236 1.111-3.774 1.111-.31 0-.463-.11-.463-.345 0-.31.2-.642.594-1.014.393-.373 1.152-.718 2.277-1.049 1.124-.331 2.49-.497 4.098-.497.283 0 .421-.041.421-.117 0-.076-.138-.166-.4-.27a1.997 1.997 0 00-.71-.15c-1.788 0-3.61.31-5.459.917-.897.297-1.58.648-2.042 1.049-.104.055-.214.103-.331.158-1.415.676-2.76 1.297-4.036 1.856-1.277.56-2.747 1.09-4.423 1.587-1.67.497-3.07.745-4.195.745-.863 0-1.518-.29-1.953-.862a3.82 3.82 0 01-.766-1.918 5.438 5.438 0 00-.559-1.918c-.29-.573-.731-.863-1.318-.863-1.048 0-2.125.352-3.215 1.056-1.097.704-1.994 1.4-2.677 2.104-.69.704-1.07 1.056-1.145 1.056-.18 0-.27-.124-.27-.386 0-.283.104-.732.325-1.36.214-.62.428-1.2.635-1.725.207-.524.303-.8.303-.82 0-.539-.455-.808-1.38-.808-1.07 0-2.332.407-3.815 1.145-.304.138-3.664 2.719-10.074 2.615-1.897-.027-3.74-.641-5.603-.993-1.773-.338-3.553-.566-5.354-.573a24.516 24.516 0 00-6.092.745c-.076.021-3.022 1.173-4.264 1.856-.36.2-2.353 1.587-3.181 2.753-.794 1.111-.442 2.001-.09 2.229.766.497 2.318-.442 3.367-1.276 1.84-1.448 1.808-4.501 4.244-5.313a22.722 22.722 0 015.83-.676c1.953.02 3.864.324 5.775.71 1.808.366 3.622.766 5.465.904a16.717 16.717 0 005.202-.428c1.718-.42 3.146-1.428 4.657-2.346 1.084-.662 2.243-.883 3.367-.993.304-.028.539.2.539.434 0 .304-.214.953-.649 1.953-.435.994-.655 1.711-.655 2.146 0 .766.448 1.152 1.338 1.152.076 0 .331-.227.766-.669.435-.449.925-.931 1.477-1.456a10.403 10.403 0 011.994-1.456c.78-.448 1.483-.669 2.125-.669.255 0 .462.124.635.366.165.241.276.545.345.917.062.373.193.766.386 1.187.186.421.435.821.724 1.187.29.372.766.676 1.415.917.648.242 1.449.366 2.394.366 2.677 0 6.713-1.256 12.11-3.753a1.76 1.76 0 00-.09.538c0 .31.179.58.538.807.358.228.793.345 1.297.345.331 0 1.545-.434 3.636-1.297 2.09-.87 3.409-1.304 3.947-1.304.179 0 .269.124.269.386 0 1.484.393 2.519 1.166 3.12.78.6 1.897.896 3.353.896 3.195 0 8.052-1.635 14.586-4.899.062-.027.104-.062.145-.09a29.333 29.333 0 004.713-2.78c-1.787 3.14-2.677 5.72-2.677 7.734 0 .89.282 1.498.841 1.822.56.318 1.401.476 2.526.476 1.2 0 2.753-.248 4.65-.745a55.936 55.936 0 005.479-1.725c1.752-.648 3.532-1.36 5.361-2.125 1.131-.476 2.083-.883 2.849-1.214a1.628 1.628 0 00-.117.6c0 .31.179.58.538.807.359.228.794.345 1.297.345.331 0 1.546-.435 3.636-1.297 2.091-.87 3.409-1.304 3.947-1.304.18 0 .269.124.269.386 0 1.484.394 2.519 1.173 3.119.78.6 1.898.897 3.347.897 3.194 0 8.052-1.635 14.586-4.899.179-.076.269-.18.269-.31 0-.18-.062-.27-.186-.27zm95.023-11.861c-.759-.497-2.612.345-3.367 1.276-1.336 1.65-1.504 4.354-4.402 5.472-.09.034-.241.069-.262.076a22.756 22.756 0 01-5.83.676c-1.953-.02-3.864-.324-5.776-.71-1.807-.367-3.622-.767-5.464-.905a16.722 16.722 0 00-5.203.428c-1.745.428-5.112 2.132-5.271 2.208-.511.255-1.628.731-3.353 1.435-1.725.704-4.057 1.49-7.004 2.353-2.946.87-5.299 1.304-7.065 1.304-.559 0-.842-.31-.842-.918 0-.358.228-1.02.69-1.994.463-.966.69-1.635.69-1.994 0-.842-.641-1.262-1.911-1.262-.283 0-.593.041-.938.13-.345.09-.635.18-.863.27-.228.09-.524.207-.883.365a10.83 10.83 0 00-.69.311c-.179.076-.269.18-.269.304 0 .151.062.227.186.227a.57.57 0 00.269-.076c.049-.02.311-.151.787-.386.469-.228.883-.4 1.242-.517a3.288 3.288 0 011.035-.173c.359 0 .538.166.538.497 0 .18-.228.752-.69 1.725-.462.966-.69 1.67-.69 2.104 0 1.125.787 1.684 2.374 1.684 1.559 0 3.822-.421 6.796-1.263 2.974-.842 5.382-1.608 7.231-2.297 1.346-.5 2.715-.954 3.933-1.684 2.953-1.98 6.451-2.78 9.977-2.415 1.89.193 3.739.642 5.602.994 1.774.338 3.554.565 5.355.572 2.056.007 4.105-.22 6.092-.745.386-.103 3.277-1.318 4.692-2.097.366-.2 2.456-1.464 3.284-2.63.807-1.11.352-2.117 0-2.345zm-72.109-8.383c2.967 3.829 13.682 18.519 10.301 23.624a1.99 1.99 0 01-1.601.884c-2.808.117-5.637-.794-8.404-1.18-5.085-.98-10.239-1.974-15.428-1.822 2.788-6.244 6.466-13.779 11.371-21.603 1.118-1.78 2.381-3.464 3.429-5.285 1.705-2.96 2.133-4.099 2.615-5.361.132-.345.228-.8.29-1.166.297-1.69-.055-3.533-.662-5.258a.155.155 0 00-.228-.076c-1.601 1.014-3.167 1.89-4.402 3.395-1.249-1.525-3.063-2.374-4.692-3.409a.1.1 0 00-.145.049c-1.076 3.022-1.304 6.361 1.298 8.68-1.256-2.236-1.891-4.913-.925-7.37.021-.055.09-.082.138-.055 1.711.883 3.139 2.188 4.381 3.65 1.229-1.449 2.312-2.76 3.982-3.65.082-.041.186-.007.213.083.614 1.628.477 3.464.014 5.092 0 .014-.007.02-.007.035l-.062.22c-.041.131-.083.27-.138.407-1.518 4.202-7.396 11.226-8.88 13.434-2.718 4.044-6.962 11.075-10.184 18.678-9.88 2.05-2.898 10.819 1.808.945 5.402-.33 10.446.98 15.421 2.022 2.767.58 8.197 2.484 11.067 1.828a2.375 2.375 0 001.525-1.145c3.967-6.844-7.528-21.051-12.095-25.646zm-21.058 25.37c0-1.366 1.828-1.573 2.801-2.063-.304.718-2.105 3.498-2.801 2.063z" fill="url(#paint0_linear_2_210)"/><defs><linearGradient id="paint0_linear_2_210" x1=".004" y1="23.222" x2="240.003" y2="23.222" gradientUnits="userSpaceOnUse"><stop stop-color="#FAE9B3"/><stop offset=".144" stop-color="#FFD241"/><stop offset=".269" stop-color="#FFE38A"/><stop offset=".413" stop-color="#FFD241"/><stop offset=".532" stop-color="#FFF0CC"/><stop offset=".646" stop-color="#FFE38A"/><stop offset=".77" stop-color="#FFD241"/><stop offset=".87" stop-color="#FAE9B3"/><stop offset="1" stop-color="#FFD241"/></linearGradient></defs></svg>