<svg width="17" height="17" viewBox="0 0 17 17" fill="none" xmlns="http://www.w3.org/2000/svg">
<path d="M16.8776 16.312L11.7634 11.1978C12.9253 9.88881 13.5315 8.17864 13.4535 6.43009C13.3755 4.68153 12.6193 3.03216 11.3454 1.83185C10.0716 0.631541 8.38016 -0.0252709 6.63006 0.00074434C4.87996 0.0267596 3.20884 0.733556 1.9712 1.9712C0.733556 3.20884 0.0267596 4.87996 0.00074434 6.63006C-0.0252709 8.38016 0.631541 10.0716 1.83185 11.3454C3.03216 12.6193 4.68153 13.3755 6.43009 13.4535C8.17864 13.5315 9.88881 12.9253 11.1978 11.7634L16.312 16.8776C16.3483 16.9162 16.3921 16.947 16.4407 16.9681C16.4894 16.9891 16.5418 17 16.5948 17C16.6478 17 16.7002 16.9891 16.7489 16.9681C16.7975 16.947 16.8413 16.9162 16.8776 16.8776C16.9162 16.8413 16.947 16.7975 16.9681 16.7489C16.9891 16.7002 17 16.6478 17 16.5948C17 16.5418 16.9891 16.4894 16.9681 16.4407C16.947 16.3921 16.9162 16.3483 16.8776 16.312ZM0.840084 6.74609C0.840084 5.57799 1.18647 4.43612 1.83542 3.46489C2.48438 2.49365 3.40678 1.73666 4.48596 1.28965C5.56514 0.842641 6.75264 0.725682 7.89829 0.953566C9.04394 1.18145 10.0963 1.74394 10.9223 2.56991C11.7482 3.39588 12.3107 4.44823 12.5386 5.59388C12.7665 6.73953 12.6495 7.92703 12.2025 9.00621C11.7555 10.0854 10.9985 11.0078 10.0273 11.6567C9.05605 12.3057 7.91418 12.6521 6.74609 12.6521C5.18037 12.65 3.6794 12.027 2.57227 10.9199C1.46515 9.81277 0.842222 8.3118 0.840084 6.74609Z" fill="#3C3C3B"/>
</svg>
